<mxfile host="app.diagrams.net" agent="Mozilla/5.0 (X11; Linux x86_64) AppleWebKit/537.36 (KHTML, like Gecko) Chrome/131.0.0.0 Safari/537.36" version="26.2.3">
  <diagram name="Page-1" id="Y-4yGCgWPZkjQL9BttwD">
    <mxGraphModel dx="2954" dy="1499" grid="1" gridSize="10" guides="1" tooltips="1" connect="1" arrows="1" fold="1" page="1" pageScale="1" pageWidth="850" pageHeight="1100" math="0" shadow="0">
      <root>
        <mxCell id="0" />
        <mxCell id="1" parent="0" />
        <mxCell id="sil1TIG74pdKywWAgjrm-2" value="" style="rounded=0;whiteSpace=wrap;html=1;" vertex="1" parent="1">
          <mxGeometry x="340" y="210" width="1920" height="1080" as="geometry" />
        </mxCell>
        <mxCell id="sil1TIG74pdKywWAgjrm-3" value="" style="rounded=0;whiteSpace=wrap;html=1;" vertex="1" parent="1">
          <mxGeometry x="340" y="210" width="1920" height="60" as="geometry" />
        </mxCell>
        <mxCell id="sil1TIG74pdKywWAgjrm-4" value="&lt;font style=&quot;font-size: 25px;&quot;&gt;OasisCaliber&lt;/font&gt;" style="text;html=1;align=center;verticalAlign=middle;whiteSpace=wrap;rounded=0;" vertex="1" parent="1">
          <mxGeometry x="380" y="225" width="105" height="30" as="geometry" />
        </mxCell>
        <mxCell id="sil1TIG74pdKywWAgjrm-5" value="开始标定" style="rounded=1;whiteSpace=wrap;html=1;arcSize=0;" vertex="1" parent="1">
          <mxGeometry x="370" y="290" width="260" height="80" as="geometry" />
        </mxCell>
        <mxCell id="sil1TIG74pdKywWAgjrm-6" value="" style="rounded=0;whiteSpace=wrap;html=1;" vertex="1" parent="1">
          <mxGeometry x="370" y="390" width="260" height="40" as="geometry" />
        </mxCell>
        <mxCell id="sil1TIG74pdKywWAgjrm-7" value="" style="rounded=0;whiteSpace=wrap;html=1;" vertex="1" parent="1">
          <mxGeometry x="370" y="430" width="260" height="530" as="geometry" />
        </mxCell>
      </root>
    </mxGraphModel>
  </diagram>
</mxfile>
